<svg id="svg" version="1.1" xmlns="http://www.w3.org/2000/svg" xmlns:xlink="http://www.w3.org/1999/xlink" width="400" height="396.9465648854962" viewBox="0, 0, 400,396.9465648854962"><g id="svgg"><path id="path0" d="M32.651 2.066 C 30.338 4.379,34.606 5.902,40.616 4.909 C 42.456 4.605,42.904 2.293,41.212 1.839 C 39.554 1.395,33.153 1.564,32.651 2.066 M242.999 1.863 C 241.648 2.216,242.079 4.622,243.545 4.916 C 245.138 5.234,248.998 5.235,250.587 4.917 C 251.871 4.661,252.225 3.289,251.319 2.085 C 250.955 1.601,244.646 1.432,242.999 1.863 M26.210 5.660 C 26.200 7.224,25.622 7.632,23.185 7.797 C 20.770 7.960,19.861 8.564,19.861 10.006 C 19.861 10.639,18.862 10.979,18.041 10.626 C 17.713 10.484,16.714 12.384,16.697 13.182 C 16.688 13.644,16.282 13.891,15.392 13.977 C 14.214 14.090,14.091 14.231,13.978 15.591 C 13.862 16.990,13.774 17.080,12.531 17.080 C 9.757 17.080,10.053 20.767,12.868 21.278 C 13.788 21.445,13.930 21.294,14.321 19.743 C 14.681 18.313,14.965 17.960,16.007 17.651 C 16.943 17.373,17.353 16.953,17.625 15.988 C 17.892 15.044,18.220 14.697,18.846 14.697 C 19.931 14.697,20.655 13.982,20.655 12.910 C 20.655 11.742,21.403 11.123,22.820 11.116 C 23.487 11.113,24.226 10.979,24.464 10.818 C 25.042 10.427,25.449 8.739,24.964 8.739 C 24.753 8.739,24.691 8.560,24.827 8.341 C 24.968 8.113,25.734 8.048,26.619 8.190 C 29.691 8.681,30.983 8.133,30.983 6.338 L 30.983 4.767 28.600 4.767 C 26.395 4.767,26.216 4.834,26.210 5.660 M253.289 5.345 C 252.372 7.734,254.979 9.006,258.563 7.918 C 258.968 7.796,259.152 8.121,259.202 9.047 C 259.289 10.665,259.449 10.823,261.500 11.318 C 262.831 11.639,263.185 11.914,263.295 12.711 C 263.483 14.070,264.018 14.628,265.272 14.773 C 266.062 14.864,266.371 15.151,266.473 15.889 C 266.661 17.250,267.254 17.875,268.355 17.875 C 269.103 17.875,269.368 18.185,269.712 19.464 C 270.059 20.752,270.318 21.053,271.085 21.053 C 273.093 21.053,273.269 21.326,273.014 24.058 C 272.760 26.776,272.701 26.684,275.020 27.195 L 276.157 27.446 275.916 30.307 C 275.551 34.638,275.959 35.948,277.673 35.948 L 279.047 35.948 279.172 32.969 C 279.332 29.158,278.759 27.103,277.443 26.773 C 276.649 26.574,276.465 26.279,276.465 25.209 C 276.465 24.483,276.197 23.622,275.869 23.294 C 275.541 22.966,275.273 22.511,275.273 22.282 C 275.273 22.053,274.826 21.573,274.280 21.215 C 273.612 20.777,273.287 20.200,273.287 19.451 C 273.287 17.640,272.899 17.080,271.643 17.080 C 270.468 17.080,270.366 16.956,269.936 14.995 C 269.740 14.101,269.482 13.903,268.513 13.903 C 267.524 13.903,267.329 13.744,267.329 12.938 C 267.329 11.704,266.350 10.725,265.116 10.725 C 264.585 10.725,264.138 10.591,264.121 10.427 C 263.881 7.998,263.843 7.958,261.608 7.782 C 259.691 7.631,258.393 6.819,257.977 5.509 C 257.672 4.547,253.649 4.406,253.289 5.345 M37.682 23.422 C 37.480 23.976,37.237 24.652,37.141 24.926 C 37.045 25.199,36.528 25.422,35.993 25.422 C 34.414 25.422,33.764 25.843,33.764 26.865 C 33.764 27.521,33.452 27.943,32.779 28.199 C 32.238 28.405,31.402 29.026,30.920 29.580 C 30.439 30.133,29.831 30.586,29.568 30.586 C 29.306 30.586,28.889 31.390,28.641 32.373 C 28.236 33.982,28.075 34.161,27.029 34.161 C 25.448 34.161,25.314 34.526,25.635 37.949 C 26.103 42.945,28.997 42.055,28.997 36.916 C 28.997 34.950,29.328 34.631,31.082 34.908 C 31.246 34.934,31.394 34.821,31.411 34.657 C 31.630 32.508,32.005 31.911,33.297 31.652 C 34.219 31.468,34.547 31.142,34.753 30.206 C 34.969 29.220,35.218 28.997,36.099 28.997 C 37.480 28.997,38.133 28.334,38.133 26.931 C 38.133 25.845,40.144 25.392,43.201 25.790 C 43.475 25.826,43.866 25.419,44.069 24.886 C 44.271 24.353,44.672 23.833,44.959 23.731 C 46.081 23.331,44.780 22.939,41.489 22.683 C 38.064 22.416,38.047 22.420,37.682 23.422 M240.394 22.800 C 235.578 23.231,233.905 24.230,238.000 24.230 C 239.089 24.230,239.611 24.446,239.921 25.025 C 240.283 25.703,240.752 25.819,243.112 25.819 C 245.777 25.819,245.879 25.855,245.879 26.784 C 245.879 28.074,246.873 28.997,248.263 28.997 C 249.134 28.997,249.428 29.203,249.526 29.881 C 249.595 30.367,250.096 30.985,250.639 31.255 C 251.856 31.859,252.640 32.884,252.388 33.540 C 252.189 34.057,253.097 35.027,253.682 34.922 C 254.696 34.740,255.015 35.066,255.015 36.285 C 255.015 38.002,256.023 40.007,257.050 40.333 C 258.116 40.672,258.084 40.741,258.408 37.445 C 258.712 34.362,258.781 34.487,256.504 33.988 C 255.713 33.815,255.411 33.504,255.407 32.862 C 255.398 31.377,254.951 30.189,254.401 30.189 C 254.114 30.189,253.613 29.921,253.286 29.594 C 252.959 29.268,252.227 28.824,251.660 28.608 C 250.973 28.347,250.549 27.820,250.391 27.032 C 250.189 26.021,249.914 25.800,248.513 25.524 C 247.180 25.262,246.846 25.017,246.735 24.219 C 246.592 23.199,245.965 22.201,245.532 22.304 C 245.395 22.337,243.083 22.560,240.394 22.800 M7.759 23.744 C 6.944 25.868,7.517 27.408,9.122 27.408 C 11.024 27.408,11.683 26.498,11.291 24.410 C 11.009 22.909,8.277 22.393,7.759 23.744 M6.984 28.150 C 6.814 28.424,6.246 28.812,5.721 29.012 C 4.811 29.358,4.767 29.540,4.767 32.959 L 4.767 36.544 6.309 36.544 C 7.573 36.544,7.895 36.383,8.091 35.650 C 8.744 33.214,7.801 26.827,6.984 28.150 M279.245 97.495 L 279.245 153.281 277.557 153.403 C 275.914 153.522,275.866 153.566,275.744 155.034 C 275.582 157.007,275.036 157.167,269.315 156.909 L 264.747 156.703 264.622 155.412 C 264.523 154.378,264.321 154.121,263.609 154.121 C 261.692 154.121,261.768 156.360,261.768 99.678 C 261.768 41.486,261.795 42.502,260.204 42.502 C 258.087 42.502,258.193 39.554,258.193 98.788 L 258.193 154.121 259.583 154.121 C 260.966 154.121,261.212 154.457,260.994 156.048 C 260.953 156.343,261.111 156.466,261.344 156.322 C 261.577 156.178,261.768 156.235,261.768 156.449 C 261.768 156.663,262.304 156.956,262.959 157.100 C 263.922 157.312,264.151 157.567,264.151 158.427 C 264.151 160.102,265.109 160.401,270.191 160.307 C 275.122 160.216,276.381 159.734,275.954 158.100 C 275.785 157.455,276.003 157.322,277.401 157.220 C 278.353 157.151,279.068 156.891,279.096 156.604 C 279.124 156.331,279.168 155.502,279.196 154.763 C 279.231 153.799,279.460 153.363,280.006 153.221 C 282.323 152.615,282.213 155.116,282.347 100.099 C 282.477 46.783,282.415 43.686,281.192 42.464 C 279.133 40.405,279.245 37.245,279.245 97.495 M22.883 43.925 C 22.579 44.717,22.572 353.425,22.876 354.557 C 23.116 355.452,24.918 355.454,25.515 354.558 C 25.676 354.318,25.810 284.296,25.813 198.954 L 25.819 43.787 24.926 43.547 C 23.535 43.175,23.143 43.247,22.883 43.925 M333.181 136.116 C 331.863 136.274,331.678 136.438,331.449 137.660 C 331.204 138.965,330.553 139.319,328.831 139.085 C 328.686 139.065,328.447 139.759,328.300 140.627 C 328.083 141.910,327.869 142.205,327.155 142.205 C 325.535 142.205,325.323 142.883,325.323 148.072 C 325.323 152.738,325.656 154.205,326.699 154.135 C 327.782 154.063,328.046 154.288,328.268 155.473 C 328.523 156.830,329.101 157.299,330.519 157.299 C 331.125 157.299,331.281 157.583,331.281 158.689 C 331.281 159.454,331.460 160.102,331.678 160.129 C 331.897 160.156,332.254 160.223,332.473 160.278 C 332.691 160.333,333.227 160.400,333.664 160.427 C 334.263 160.464,334.459 160.758,334.459 161.620 C 334.459 162.925,335.021 163.519,336.445 163.716 C 337.154 163.814,337.478 164.137,337.577 164.846 C 337.738 165.993,338.264 166.420,339.523 166.429 C 340.231 166.434,340.418 166.663,340.423 167.527 C 340.430 168.766,340.785 169.396,341.509 169.454 C 341.783 169.476,342.363 169.520,342.800 169.553 C 343.391 169.597,343.595 169.897,343.595 170.725 C 343.595 172.129,344.248 172.790,345.635 172.790 C 346.571 172.790,346.740 172.970,346.847 174.081 C 346.956 175.217,347.127 175.387,348.262 175.497 C 349.393 175.606,349.553 175.764,349.553 176.774 C 349.553 177.999,350.447 178.749,351.910 178.749 C 352.549 178.749,352.731 179.001,352.731 179.892 C 352.731 180.906,353.374 181.942,353.923 181.812 C 354.401 181.698,355.909 183.360,355.909 184.001 C 355.909 184.543,356.231 184.707,357.299 184.707 C 358.582 184.707,358.689 184.800,358.689 185.911 C 358.689 186.643,358.936 187.210,359.318 187.357 C 361.050 188.021,350.383 188.083,234.397 188.083 C 165.777 188.083,109.633 188.228,109.633 188.405 C 109.633 188.582,109.454 188.616,109.235 188.481 C 108.824 188.226,108.799 188.280,108.642 189.784 C 108.520 190.962,108.278 191.172,106.996 191.221 C 105.629 191.273,105.568 191.558,105.405 198.610 C 105.235 205.929,105.285 206.157,107.058 206.157 C 108.191 206.157,108.441 206.305,108.441 206.977 C 108.441 208.626,109.168 209.335,110.861 209.335 L 112.459 209.335 112.337 207.680 C 112.226 206.184,112.081 205.980,110.829 205.561 C 108.803 204.882,107.769 193.027,109.633 191.849 C 109.997 191.618,125.941 191.462,150.745 191.446 C 301.442 191.349,365.003 191.235,365.171 191.063 C 366.133 190.069,365.564 187.740,364.250 187.294 C 363.196 186.936,362.812 186.551,362.661 185.700 C 362.511 184.848,362.128 184.466,361.072 184.111 C 360.003 183.752,359.636 183.378,359.480 182.491 C 359.325 181.602,359.018 181.291,358.146 181.135 C 357.343 180.992,356.823 180.533,356.362 179.559 C 355.956 178.704,355.336 178.098,354.718 177.953 C 354.013 177.788,353.668 177.387,353.526 176.572 C 353.371 175.681,353.039 175.348,352.045 175.091 C 351.050 174.833,350.688 174.471,350.431 173.477 C 350.172 172.476,349.842 172.150,348.932 171.993 C 348.025 171.835,347.666 171.482,347.317 170.404 C 346.973 169.339,346.605 168.970,345.732 168.815 C 344.859 168.660,344.547 168.348,344.393 167.476 C 344.238 166.603,343.869 166.235,342.804 165.890 C 341.717 165.539,341.373 165.185,341.212 164.254 C 341.048 163.309,340.762 163.023,339.818 162.860 C 338.887 162.699,338.533 162.355,338.181 161.268 C 337.837 160.203,337.469 159.834,336.596 159.679 C 335.718 159.523,335.412 159.214,335.257 158.324 C 335.101 157.436,334.734 157.063,333.664 156.703 C 332.600 156.345,332.227 155.969,332.074 155.095 C 331.915 154.186,331.609 153.900,330.565 153.687 C 328.740 153.314,328.778 153.422,328.795 148.667 C 328.817 142.558,328.704 142.999,330.245 142.999 C 331.663 142.999,332.075 142.506,332.075 140.809 C 332.075 139.597,332.590 139.485,337.637 139.599 C 343.075 139.722,342.800 139.649,342.800 140.964 C 342.800 142.269,343.362 142.863,344.784 143.060 C 345.529 143.164,345.825 143.492,345.979 144.386 C 346.141 145.330,346.427 145.616,347.372 145.780 C 348.303 145.941,348.657 146.285,349.009 147.372 C 349.353 148.437,349.721 148.806,350.594 148.961 C 351.472 149.116,351.777 149.426,351.933 150.316 C 352.089 151.203,352.455 151.577,353.525 151.936 C 354.597 152.297,354.961 152.668,355.116 153.560 C 355.271 154.455,355.557 154.745,356.378 154.840 C 357.630 154.985,358.165 155.543,358.353 156.899 C 358.456 157.639,358.785 157.940,359.657 158.091 C 360.556 158.246,360.897 158.575,361.143 159.524 C 361.384 160.456,361.777 160.847,362.755 161.128 C 363.760 161.416,364.094 161.762,364.251 162.676 C 364.408 163.593,364.687 163.880,365.514 163.976 C 366.766 164.121,367.301 164.679,367.489 166.035 C 367.593 166.782,367.919 167.075,368.818 167.227 C 369.748 167.384,370.094 167.714,370.393 168.730 C 370.680 169.704,371.080 170.110,371.982 170.344 C 372.885 170.578,373.238 170.936,373.386 171.771 C 373.537 172.620,373.916 172.994,374.972 173.335 C 376.061 173.687,376.403 174.040,376.563 174.975 C 376.717 175.873,377.012 176.201,377.758 176.304 C 379.108 176.491,379.742 177.084,379.742 178.159 C 379.742 179.078,380.412 179.543,381.735 179.543 C 382.269 179.543,382.506 179.885,382.596 180.785 C 382.699 181.809,382.964 182.104,384.108 182.473 C 385.197 182.824,385.538 183.175,385.699 184.111 C 385.853 185.009,386.148 185.337,386.894 185.440 C 388.251 185.628,388.809 186.164,388.954 187.415 C 389.050 188.245,389.336 188.521,390.265 188.681 C 391.193 188.840,391.497 189.133,391.655 190.022 C 391.810 190.896,392.179 191.262,393.247 191.607 C 394.275 191.939,394.672 192.315,394.770 193.049 C 394.953 194.413,395.407 194.785,396.918 194.813 L 398.213 194.836 398.213 199.703 C 398.213 204.484,398.228 204.569,399.106 204.568 C 399.985 204.568,400.000 204.487,400.000 199.603 C 400.000 195.025,399.942 194.638,399.260 194.638 C 398.658 194.638,398.472 194.224,398.259 192.411 C 397.937 189.675,397.515 188.840,396.300 188.535 C 395.782 188.405,393.898 186.865,392.113 185.112 C 390.327 183.360,388.632 181.927,388.345 181.927 C 387.711 181.927,386.097 180.269,386.097 179.617 C 386.097 179.358,385.932 179.146,385.731 179.146 C 385.096 179.146,382.907 177.105,383.139 176.729 C 383.261 176.532,380.938 173.949,377.976 170.989 C 375.015 168.029,372.592 165.440,372.592 165.234 C 372.592 165.029,372.145 164.749,371.599 164.612 C 371.053 164.475,370.606 164.203,370.606 164.009 C 370.606 163.814,370.369 163.654,370.079 163.654 C 369.440 163.654,367.825 162.000,367.825 161.345 C 367.825 161.086,367.591 160.874,367.304 160.874 C 366.620 160.874,364.557 158.713,364.907 158.364 C 365.055 158.215,364.958 158.093,364.690 158.093 C 364.422 158.093,364.306 157.927,364.431 157.725 C 364.557 157.522,364.257 157.298,363.766 157.228 C 363.275 157.158,362.512 156.526,362.072 155.825 C 361.631 155.123,361.111 154.542,360.915 154.534 C 360.304 154.507,356.037 149.987,355.740 149.051 C 355.585 148.563,355.303 148.163,355.114 148.163 C 354.925 148.163,354.662 147.820,354.529 147.402 C 354.396 146.983,353.758 146.456,353.112 146.231 C 352.465 146.005,351.936 145.654,351.936 145.449 C 351.936 145.245,351.580 144.985,351.145 144.871 C 350.710 144.757,350.040 144.112,349.656 143.437 C 349.272 142.762,348.765 142.208,348.530 142.207 C 347.988 142.204,346.375 140.506,346.375 139.937 C 346.375 139.449,345.459 139.027,344.399 139.027 C 343.655 139.027,343.198 138.283,343.198 137.074 C 343.198 136.692,342.974 136.347,342.701 136.307 C 341.261 136.100,334.456 135.964,333.181 136.116 M394.829 206.253 C 394.314 208.062,394.084 208.361,393.072 208.537 C 392.180 208.691,391.834 209.023,391.592 209.955 C 391.376 210.788,390.872 211.350,389.989 211.742 C 389.187 212.098,388.615 212.688,388.474 213.305 C 388.346 213.866,387.910 214.358,387.470 214.438 C 386.369 214.640,385.303 215.683,385.303 216.559 C 385.303 216.969,384.990 217.401,384.608 217.519 C 383.240 217.941,382.736 218.361,382.526 219.248 C 382.404 219.767,381.733 220.425,380.945 220.800 C 380.092 221.205,379.489 221.824,379.345 222.443 C 379.189 223.112,378.794 223.481,378.137 223.573 C 376.804 223.761,376.303 224.242,376.032 225.600 C 375.870 226.411,375.532 226.791,374.892 226.882 C 374.308 226.965,373.774 227.483,373.403 228.328 C 373.001 229.240,372.481 229.714,371.713 229.868 C 370.883 230.034,370.522 230.404,370.283 231.331 C 370.042 232.270,369.633 232.681,368.603 233.019 C 367.693 233.319,367.168 233.779,367.020 234.410 C 366.898 234.928,366.291 235.597,365.671 235.896 C 365.051 236.194,364.356 236.936,364.126 237.543 C 363.896 238.155,363.171 238.887,362.501 239.185 C 361.772 239.509,361.203 240.115,361.066 240.713 C 360.938 241.274,360.502 241.766,360.062 241.846 C 358.971 242.046,357.961 243.029,357.818 244.029 C 357.749 244.507,357.349 244.941,356.902 245.022 C 355.797 245.223,354.717 246.260,354.717 247.121 C 354.717 247.600,354.287 247.954,353.434 248.175 C 352.489 248.419,352.062 248.815,351.812 249.676 C 351.599 250.408,351.006 251.066,350.223 251.440 C 349.471 251.798,348.885 252.431,348.751 253.029 C 348.592 253.740,348.225 254.057,347.460 254.147 C 346.595 254.248,346.313 254.564,345.978 255.811 C 345.742 256.686,345.256 257.448,344.853 257.576 C 343.768 257.920,334.963 257.969,332.274 257.646 C 329.248 257.283,328.066 257.917,328.795 259.515 C 329.383 260.807,331.415 261.392,334.396 261.126 C 335.632 261.016,337.537 260.967,338.630 261.017 C 344.580 261.288,345.911 261.012,346.224 259.446 C 346.387 258.631,346.779 258.238,347.702 257.963 C 348.392 257.757,348.913 257.367,348.858 257.096 C 348.803 256.825,348.937 256.604,349.156 256.604 C 349.374 256.604,349.553 256.146,349.553 255.587 C 349.553 254.974,349.720 254.674,349.973 254.830 C 350.816 255.351,352.333 254.637,352.340 253.716 C 352.349 252.408,352.793 251.925,354.122 251.774 C 355.138 251.658,355.331 251.451,355.436 250.361 C 355.544 249.250,355.741 249.050,356.950 248.823 C 357.905 248.643,358.274 248.391,358.130 248.015 C 358.014 247.714,358.093 247.468,358.304 247.468 C 358.516 247.468,358.689 247.110,358.689 246.673 C 358.689 246.144,358.954 245.879,359.484 245.879 C 359.921 245.879,360.278 245.706,360.278 245.494 C 360.278 245.282,360.524 245.204,360.825 245.319 C 361.202 245.464,361.455 245.090,361.638 244.115 C 361.849 242.991,362.087 242.701,362.799 242.701 C 363.932 242.701,364.647 241.995,364.647 240.877 C 364.647 239.982,365.330 239.523,366.658 239.523 C 367.426 239.523,368.121 237.939,367.671 237.212 C 367.545 237.009,368.134 236.731,368.979 236.596 C 370.355 236.376,370.544 236.204,370.778 234.958 C 370.927 234.164,371.287 233.544,371.617 233.515 C 372.779 233.416,372.956 233.359,373.333 232.969 C 373.544 232.751,373.776 232.148,373.849 231.629 C 373.945 230.952,374.375 230.559,375.372 230.238 C 376.137 229.993,376.785 229.568,376.812 229.295 C 376.840 229.022,376.884 228.567,376.912 228.285 C 376.939 228.002,377.542 227.600,378.252 227.391 C 379.223 227.105,379.637 226.691,379.923 225.720 C 380.201 224.777,380.536 224.429,381.166 224.429 C 382.203 224.429,382.796 223.781,382.981 222.443 C 383.079 221.732,383.400 221.412,384.111 221.317 C 384.657 221.244,385.283 221.011,385.501 220.801 C 385.893 220.422,385.950 220.243,386.048 219.067 C 386.075 218.739,386.455 218.471,386.892 218.471 C 388.001 218.471,389.275 217.078,389.275 215.865 C 389.275 215.252,389.442 214.952,389.695 215.108 C 390.690 215.723,392.004 214.911,392.130 213.603 C 392.233 212.539,392.440 212.292,393.318 212.191 C 394.559 212.047,395.104 211.491,395.295 210.171 C 395.398 209.454,395.716 209.191,396.588 209.099 C 399.467 208.797,399.054 204.171,396.148 204.171 C 395.612 204.171,395.266 204.717,394.829 206.253 M237.934 209.334 L 113.009 209.533 114.399 210.434 C 115.762 211.317,115.952 211.331,124.131 211.117 C 141.659 210.659,202.374 210.490,203.774 210.895 C 206.278 211.619,306.207 212.267,327.706 211.698 C 345.378 211.231,358.689 211.417,358.689 212.132 C 358.689 212.313,358.108 212.518,357.398 212.587 C 356.263 212.696,356.092 212.867,355.983 214.001 C 355.883 215.032,355.645 215.337,354.791 215.523 C 352.958 215.924,352.692 216.062,352.759 216.579 C 352.955 218.074,352.702 218.471,351.553 218.471 C 350.309 218.471,349.553 219.352,349.553 220.803 C 349.553 221.410,349.247 221.628,348.262 221.723 C 347.121 221.833,346.948 222.009,346.773 223.237 C 346.596 224.473,346.420 224.650,345.184 224.826 C 344.338 224.947,343.773 225.258,343.740 225.621 C 343.711 225.948,343.666 226.529,343.641 226.912 C 343.610 227.370,343.267 227.607,342.630 227.607 C 342.100 227.607,341.385 227.888,341.041 228.231 C 340.698 228.574,340.417 229.289,340.417 229.820 C 340.417 230.456,340.181 230.800,339.722 230.830 C 339.340 230.856,338.759 230.900,338.431 230.930 C 338.044 230.964,337.792 231.496,337.713 232.450 C 337.599 233.828,337.503 233.924,336.124 234.039 C 334.790 234.150,334.646 234.277,334.533 235.452 C 334.438 236.437,334.220 236.743,333.613 236.743 C 332.162 236.743,331.281 237.498,331.281 238.743 C 331.281 239.892,330.884 240.145,329.389 239.949 C 328.831 239.876,328.676 240.230,328.315 242.403 L 328.067 243.893 329.861 243.893 C 331.543 243.893,331.676 243.814,331.982 242.634 C 332.161 241.942,332.613 241.227,332.986 241.046 C 333.359 240.864,333.977 240.563,334.359 240.377 C 334.742 240.190,335.114 239.639,335.186 239.151 C 335.271 238.579,335.803 238.061,336.688 237.692 C 337.662 237.285,338.122 236.799,338.280 236.010 C 338.442 235.197,338.834 234.802,339.748 234.531 C 340.677 234.255,341.087 233.832,341.359 232.870 C 341.626 231.926,341.954 231.579,342.580 231.579 C 343.687 231.579,344.389 230.858,344.389 229.723 C 344.389 229.040,344.701 228.740,345.672 228.489 C 346.636 228.239,347.042 227.853,347.306 226.933 C 347.561 226.043,347.991 225.614,348.887 225.357 C 349.701 225.124,350.194 224.684,350.341 224.059 C 350.464 223.539,350.828 222.991,351.151 222.841 C 352.996 221.983,353.345 221.656,353.527 220.613 C 353.684 219.715,353.967 219.436,354.824 219.337 C 355.632 219.244,356.065 218.866,356.468 217.902 C 356.826 217.043,357.380 216.500,358.077 216.326 C 358.782 216.149,359.328 215.606,359.702 214.711 C 360.055 213.866,360.586 213.316,361.125 213.236 C 361.598 213.166,362.109 212.840,362.260 212.512 C 363.095 210.709,363.416 210.326,364.258 210.127 C 365.770 209.770,365.712 208.922,364.184 209.036 C 363.456 209.090,306.643 209.224,237.934 209.334 M269.329 239.308 C 268.889 239.838,268.991 239.921,270.094 239.921 C 270.936 239.921,271.311 239.752,271.202 239.424 C 270.954 238.679,269.905 238.613,269.329 239.308 M261.194 240.601 C 261.073 240.918,260.973 241.609,260.973 242.138 C 260.973 242.820,260.752 243.098,260.211 243.098 C 258.036 243.098,258.192 238.760,258.198 299.049 C 258.201 329.557,258.311 354.921,258.443 355.412 C 258.648 356.179,260.948 356.784,261.458 356.207 C 261.506 356.152,261.641 330.910,261.756 300.113 L 261.966 244.118 263.875 243.579 C 265.750 243.049,265.782 243.013,265.663 241.579 L 265.541 240.119 263.478 240.072 C 262.009 240.038,261.352 240.190,261.194 240.601 M273.376 240.222 C 272.135 240.636,272.835 243.000,274.279 243.271 C 275.259 243.454,275.841 243.865,276.254 244.664 C 276.682 245.491,277.110 245.781,277.844 245.738 C 278.396 245.706,278.857 245.680,278.869 245.680 C 278.881 245.680,278.987 244.652,279.105 243.396 C 279.253 241.814,279.178 241.112,278.861 241.112 C 278.610 241.112,278.514 240.933,278.649 240.715 C 278.784 240.497,278.661 240.292,278.375 240.261 C 276.924 240.104,273.803 240.080,273.376 240.222 M326.338 245.219 C 325.344 246.521,325.299 246.786,325.408 250.702 L 325.521 254.816 326.998 254.939 C 329.053 255.109,329.289 253.460,328.404 245.117 C 328.249 243.662,327.497 243.699,326.338 245.219 M279.245 303.476 C 279.245 343.095,279.372 360.278,279.665 360.278 C 280.308 360.278,281.524 357.197,282.016 354.320 C 282.329 352.491,282.424 336.796,282.341 300.497 C 282.220 247.118,282.248 248.027,280.675 246.977 C 279.220 246.005,279.245 244.997,279.245 303.476 M25.640 360.058 C 25.245 363.221,25.539 363.853,27.405 363.853 L 28.936 363.853 28.867 366.324 C 28.799 368.777,28.807 368.796,29.990 369.007 C 30.920 369.173,31.209 369.453,31.305 370.281 C 31.469 371.699,32.112 372.142,33.664 371.904 C 35.867 371.568,35.343 368.222,33.088 368.222 C 32.501 368.222,32.158 367.975,32.129 367.527 C 32.104 367.145,32.059 366.570,32.030 366.249 C 32.000 365.929,31.593 365.475,31.125 365.241 C 29.320 364.338,28.997 363.804,28.995 361.719 C 28.992 359.667,28.680 359.255,26.165 357.987 C 26.028 357.917,25.792 358.849,25.640 360.058 M255.280 359.351 C 254.629 360.002,255.013 363.427,255.783 363.839 C 257.696 364.863,258.590 364.171,258.590 361.668 C 258.590 359.379,256.626 358.005,255.280 359.351 M4.773 365.740 C 4.779 370.022,4.909 370.427,6.394 370.800 C 7.328 371.034,7.450 371.308,7.781 373.899 C 8.132 376.653,8.183 376.752,9.434 377.107 C 10.654 377.453,11.042 378.260,10.762 379.871 C 10.731 380.051,10.876 380.093,11.085 379.963 C 11.294 379.834,11.577 379.911,11.714 380.133 C 11.851 380.355,12.400 380.536,12.933 380.536 C 13.746 380.536,13.903 380.729,13.903 381.728 C 13.903 382.383,14.042 382.920,14.213 382.920 C 14.383 382.920,14.710 383.416,14.939 384.023 C 15.209 384.736,16.036 385.476,17.283 386.118 C 18.366 386.675,19.497 387.628,19.863 388.292 C 20.339 389.153,20.858 389.507,21.777 389.598 C 22.734 389.693,23.039 389.915,23.039 390.520 C 23.039 391.925,24.007 392.453,26.585 392.453 C 28.820 392.453,28.997 392.519,29.003 393.347 C 29.017 395.344,29.475 395.534,34.459 395.598 C 36.666 395.627,36.941 395.719,36.941 396.425 C 36.941 397.209,37.206 397.219,57.994 397.219 C 78.782 397.219,79.047 397.209,79.047 396.425 C 79.047 395.641,78.782 395.631,57.994 395.631 L 36.941 395.631 36.941 394.073 C 36.941 392.361,36.115 391.909,33.271 392.065 C 29.660 392.263,29.394 392.167,29.394 390.665 L 29.394 389.275 27.060 389.275 C 24.582 389.275,24.002 388.931,23.772 387.322 C 23.674 386.637,23.243 386.231,22.262 385.903 C 21.218 385.553,20.811 385.140,20.562 384.181 C 20.312 383.215,20.017 382.920,19.302 382.920 C 18.197 382.920,17.605 382.295,17.416 380.933 C 17.306 380.139,17.021 379.916,15.988 379.816 C 14.876 379.709,14.697 379.540,14.697 378.604 C 14.697 377.294,14.047 376.564,12.879 376.564 C 11.592 376.564,11.180 375.802,11.045 373.174 L 10.924 370.804 9.533 370.603 L 8.143 370.402 8.259 367.823 C 8.481 362.891,8.149 361.867,6.331 361.867 L 4.767 361.867 4.773 365.740 M276.190 362.761 C 276.014 363.034,275.869 364.850,275.869 366.796 L 275.869 370.334 274.479 370.802 C 273.112 371.261,273.086 371.310,272.970 373.715 C 272.859 376.011,272.786 376.176,271.779 376.396 C 271.188 376.525,270.504 376.691,270.259 376.764 C 270.013 376.838,269.696 377.516,269.555 378.272 C 269.348 379.373,269.074 379.691,268.178 379.870 C 267.335 380.038,266.967 380.417,266.683 381.406 C 266.392 382.420,266.045 382.764,265.155 382.918 C 264.267 383.072,263.928 383.406,263.678 384.370 C 263.414 385.392,263.081 385.686,261.866 385.972 C 260.640 386.260,260.355 386.515,260.250 387.422 C 260.101 388.699,258.960 389.275,256.578 389.275 C 254.991 389.275,254.867 389.418,254.940 391.162 C 254.976 392.019,254.843 392.056,251.719 392.062 C 247.955 392.069,247.641 392.204,247.395 393.927 C 247.169 395.505,247.453 395.631,251.247 395.631 C 253.920 395.631,254.193 395.555,254.472 394.737 C 254.811 393.744,254.892 393.433,254.965 392.850 C 254.993 392.628,256.240 392.453,257.795 392.453 C 259.723 392.453,260.595 392.300,260.636 391.956 C 260.670 391.683,260.739 391.281,260.789 391.063 C 260.840 390.844,260.902 390.453,260.927 390.194 C 260.953 389.935,261.541 389.667,262.235 389.598 C 263.148 389.508,263.673 389.153,264.137 388.313 C 264.489 387.674,265.634 386.690,266.680 386.126 C 268.067 385.378,268.873 384.572,269.655 383.153 C 270.698 381.256,271.158 380.822,272.592 380.379 C 273.082 380.227,273.287 379.751,273.287 378.761 C 273.287 377.726,273.458 377.358,273.938 377.358 C 274.297 377.358,274.846 377.046,275.159 376.663 C 275.473 376.281,275.599 376.219,275.440 376.526 C 275.256 376.880,275.309 376.986,275.584 376.816 C 275.822 376.669,276.035 376.239,276.058 375.861 C 276.080 375.483,276.136 374.304,276.182 373.240 C 276.262 371.407,276.338 371.283,277.656 370.857 L 279.047 370.407 279.174 366.336 L 279.302 362.264 277.907 362.264 C 277.139 362.264,276.367 362.488,276.190 362.761 M252.334 365.627 C 252.061 365.944,251.837 366.657,251.837 367.213 C 251.837 368.163,250.983 368.527,249.355 368.269 C 249.191 368.244,249.057 369.091,249.057 370.152 L 249.057 372.082 250.692 372.039 C 252.197 371.999,252.364 371.885,252.778 370.606 C 253.084 369.660,253.504 369.176,254.092 369.092 C 255.466 368.897,255.975 368.004,255.554 366.526 C 255.142 365.080,253.259 364.554,252.334 365.627 M36.246 371.663 C 34.982 372.173,35.686 374.464,37.182 374.706 C 40.220 375.199,41.443 374.546,41.061 372.633 C 40.816 371.411,38.185 370.881,36.246 371.663 M243.044 372.354 C 242.146 374.325,243.521 375.115,247.117 374.694 L 248.951 374.480 248.653 373.159 C 248.489 372.432,248.427 371.765,248.515 371.677 C 248.604 371.588,247.509 371.484,246.083 371.445 C 243.679 371.378,243.458 371.445,243.044 372.354 M45.023 374.470 C 43.101 374.645,42.299 376.133,43.487 377.321 C 44.177 378.012,234.044 378.532,238.772 377.856 C 240.877 377.556,240.916 377.526,241.033 376.124 L 241.153 374.697 238.451 374.442 C 235.649 374.177,47.940 374.204,45.023 374.470 " stroke="none" fill="#6b6d6d" fill-rule="evenodd"></path><path id="path1" d="M41.410 1.863 C 41.898 1.990,42.105 2.442,42.105 3.377 C 42.105 5.010,39.994 5.446,34.354 4.976 L 30.983 4.695 30.983 6.302 C 30.983 8.383,28.881 8.927,25.025 7.845 C 24.697 7.753,24.564 7.753,24.729 7.845 C 24.895 7.937,24.929 8.176,24.805 8.376 C 24.682 8.575,24.753 8.739,24.964 8.739 C 25.449 8.739,25.042 10.427,24.464 10.818 C 24.226 10.979,23.487 11.113,22.820 11.116 C 21.403 11.123,20.655 11.742,20.655 12.910 C 20.655 13.982,19.931 14.697,18.846 14.697 C 18.220 14.697,17.892 15.044,17.625 15.988 C 17.353 16.953,16.943 17.373,16.007 17.651 C 14.965 17.960,14.681 18.313,14.321 19.743 C 13.866 21.551,12.781 21.867,11.286 20.627 C 10.574 20.036,10.520 21.476,11.159 24.012 C 11.778 26.474,11.205 27.408,9.076 27.408 C 7.508 27.408,7.463 27.444,7.720 28.500 C 8.962 33.619,8.459 36.544,6.338 36.544 L 4.767 36.544 4.767 199.206 L 4.767 361.867 6.331 361.867 C 8.149 361.867,8.481 362.891,8.259 367.823 L 8.143 370.402 9.533 370.603 L 10.924 370.804 11.045 373.174 C 11.180 375.802,11.592 376.564,12.879 376.564 C 14.047 376.564,14.697 377.294,14.697 378.604 C 14.697 379.540,14.876 379.709,15.988 379.816 C 17.021 379.916,17.306 380.139,17.416 380.933 C 17.605 382.295,18.197 382.920,19.302 382.920 C 20.017 382.920,20.312 383.215,20.562 384.181 C 20.811 385.140,21.218 385.553,22.262 385.903 C 23.243 386.231,23.674 386.637,23.772 387.322 C 24.002 388.931,24.582 389.275,27.060 389.275 L 29.394 389.275 29.394 390.665 C 29.394 392.167,29.660 392.263,33.271 392.065 C 36.115 391.909,36.941 392.361,36.941 394.073 L 36.941 395.631 142.502 395.599 C 200.561 395.582,247.872 395.488,247.637 395.391 C 247.109 395.172,247.413 392.760,248.019 392.360 C 248.262 392.199,249.927 392.065,251.719 392.062 C 254.843 392.056,254.976 392.019,254.940 391.162 C 254.867 389.418,254.991 389.275,256.578 389.275 C 258.960 389.275,260.101 388.699,260.250 387.422 C 260.355 386.515,260.640 386.260,261.866 385.972 C 263.081 385.686,263.414 385.392,263.678 384.370 C 263.928 383.406,264.267 383.072,265.155 382.918 C 266.045 382.764,266.392 382.420,266.683 381.406 C 266.967 380.417,267.335 380.038,268.178 379.870 C 269.074 379.691,269.348 379.373,269.555 378.272 C 269.696 377.516,270.013 376.838,270.259 376.764 C 270.504 376.691,271.188 376.525,271.779 376.396 C 272.786 376.176,272.859 376.011,272.970 373.715 C 273.086 371.310,273.112 371.261,274.479 370.802 L 275.869 370.334 275.869 366.796 C 275.869 362.668,276.048 362.264,277.881 362.264 L 279.250 362.264 279.239 302.979 C 279.232 268.444,279.080 243.928,278.876 244.254 C 278.682 244.562,278.599 245.009,278.690 245.247 C 279.099 246.314,276.826 245.770,276.254 244.664 C 275.841 243.865,275.259 243.454,274.279 243.271 C 272.822 242.997,272.152 240.682,273.386 240.184 C 273.659 240.073,272.001 239.969,269.702 239.952 L 265.520 239.921 265.669 241.475 C 265.817 243.030,265.816 243.031,263.892 243.574 L 261.966 244.118 261.756 300.113 C 261.641 330.910,261.506 356.152,261.458 356.207 C 261.045 356.674,258.614 356.195,258.434 355.611 C 258.317 355.228,258.310 356.717,258.419 358.919 C 258.682 364.232,258.199 365.132,255.783 363.839 C 254.855 363.342,254.776 363.958,255.471 366.277 C 255.991 368.013,255.565 368.883,254.092 369.092 C 253.504 369.176,253.084 369.660,252.778 370.606 C 252.342 371.952,249.057 372.933,249.057 371.718 C 249.057 371.517,248.896 371.452,248.701 371.573 C 248.505 371.694,248.481 372.398,248.648 373.137 L 248.951 374.480 247.040 374.706 C 245.989 374.831,244.539 374.763,243.818 374.557 C 243.097 374.350,241.345 374.213,239.923 374.252 C 237.649 374.315,237.568 374.342,239.248 374.474 L 241.157 374.623 241.036 376.087 C 240.915 377.533,240.889 377.554,238.772 377.856 C 234.044 378.532,44.177 378.012,43.487 377.321 C 42.299 376.133,43.101 374.645,45.023 374.470 C 46.220 374.361,45.964 374.300,44.089 374.250 C 42.667 374.212,40.892 374.356,40.143 374.571 C 37.623 375.294,35.750 374.697,35.750 373.170 C 35.750 372.452,35.973 371.773,36.246 371.663 C 37.110 371.315,35.669 371.392,33.976 371.784 C 32.140 372.210,31.485 371.842,31.305 370.281 C 31.209 369.453,30.920 369.173,29.990 369.007 C 28.807 368.796,28.799 368.777,28.867 366.324 L 28.936 363.853 27.411 363.853 C 25.488 363.853,25.461 363.767,25.692 358.491 C 25.798 356.087,25.735 354.318,25.554 354.558 C 24.878 355.454,23.116 355.452,22.876 354.557 C 22.507 353.181,22.625 44.335,22.995 43.751 C 23.229 43.382,23.720 43.296,24.551 43.479 C 26.027 43.803,26.228 42.867,25.674 38.240 C 25.255 34.731,25.439 34.161,26.993 34.161 C 28.082 34.161,28.232 33.997,28.641 32.373 C 28.889 31.390,29.306 30.586,29.568 30.586 C 29.831 30.586,30.439 30.133,30.920 29.580 C 31.402 29.026,32.238 28.405,32.779 28.199 C 33.465 27.938,33.764 27.523,33.764 26.830 C 33.764 25.846,34.047 25.680,36.310 25.338 C 36.770 25.269,37.261 24.675,37.554 23.833 C 37.866 22.938,38.232 22.514,38.582 22.642 C 39.562 22.999,238.034 23.066,241.907 22.710 C 246.014 22.332,246.556 22.493,246.749 24.150 C 246.852 25.035,247.133 25.254,248.513 25.525 C 249.914 25.800,250.189 26.021,250.391 27.032 C 250.549 27.820,250.973 28.347,251.660 28.608 C 252.227 28.824,252.959 29.268,253.286 29.594 C 253.613 29.921,254.114 30.189,254.401 30.189 C 254.951 30.189,255.398 31.377,255.407 32.862 C 255.411 33.504,255.713 33.815,256.504 33.988 C 257.105 34.120,257.824 34.297,258.101 34.383 C 258.490 34.503,258.546 35.566,258.348 39.017 C 258.136 42.730,258.182 43.411,258.619 42.999 C 259.923 41.771,261.246 42.386,261.515 44.345 C 261.654 45.359,261.768 70.259,261.768 99.678 C 261.768 156.360,261.692 154.121,263.609 154.121 C 264.321 154.121,264.523 154.378,264.622 155.412 L 264.747 156.703 269.315 156.909 C 275.036 157.167,275.582 157.007,275.744 155.034 C 275.866 153.566,275.914 153.522,277.557 153.403 L 279.245 153.281 279.246 94.615 L 279.246 35.948 277.776 35.948 C 275.953 35.948,275.545 34.709,275.916 30.307 L 276.157 27.446 275.020 27.195 C 272.701 26.684,272.760 26.776,273.014 24.058 C 273.269 21.326,273.093 21.053,271.085 21.053 C 270.318 21.053,270.059 20.752,269.712 19.464 C 269.368 18.185,269.103 17.875,268.355 17.875 C 267.254 17.875,266.661 17.250,266.473 15.889 C 266.375 15.179,266.052 14.856,265.343 14.758 C 263.983 14.570,263.426 14.036,263.281 12.781 C 263.179 11.897,262.879 11.651,261.500 11.318 C 259.449 10.823,259.289 10.665,259.202 9.047 C 259.152 8.121,258.968 7.796,258.563 7.918 C 255.216 8.934,252.967 8.096,253.240 5.936 L 253.394 4.721 249.678 4.994 C 243.946 5.415,242.304 5.056,242.304 3.381 C 242.304 2.442,242.511 1.990,242.999 1.863 C 243.381 1.763,198.024 1.681,142.205 1.681 C 86.385 1.681,41.028 1.763,41.410 1.863 M332.572 139.715 C 332.299 139.810,332.075 140.305,332.075 140.815 C 332.075 142.505,331.662 142.999,330.245 142.999 C 328.704 142.999,328.817 142.558,328.795 148.667 C 328.778 153.422,328.740 153.314,330.565 153.687 C 331.609 153.900,331.915 154.186,332.074 155.095 C 332.227 155.969,332.600 156.345,333.664 156.703 C 334.734 157.063,335.101 157.436,335.257 158.324 C 335.412 159.214,335.718 159.523,336.596 159.679 C 337.469 159.834,337.837 160.203,338.181 161.268 C 338.533 162.355,338.887 162.699,339.818 162.860 C 340.762 163.023,341.048 163.309,341.212 164.254 C 341.373 165.185,341.717 165.539,342.804 165.890 C 343.869 166.235,344.238 166.603,344.393 167.476 C 344.547 168.348,344.859 168.660,345.732 168.815 C 346.605 168.970,346.973 169.339,347.317 170.404 C 347.666 171.482,348.025 171.835,348.932 171.993 C 349.842 172.150,350.172 172.476,350.431 173.477 C 350.688 174.471,351.050 174.833,352.045 175.091 C 353.039 175.348,353.371 175.681,353.526 176.572 C 353.668 177.387,354.013 177.788,354.718 177.953 C 355.336 178.098,355.956 178.704,356.362 179.559 C 356.823 180.533,357.343 180.992,358.146 181.135 C 359.018 181.291,359.325 181.602,359.480 182.491 C 359.636 183.378,360.003 183.752,361.072 184.111 C 362.128 184.466,362.511 184.848,362.661 185.700 C 362.812 186.551,363.196 186.936,364.250 187.294 C 365.564 187.740,366.133 190.069,365.171 191.063 C 365.003 191.235,301.442 191.349,150.745 191.446 C 125.941 191.462,109.997 191.618,109.633 191.849 C 107.769 193.027,108.803 204.882,110.829 205.561 C 112.082 205.980,112.226 206.183,112.337 207.685 L 112.459 209.344 238.951 209.240 C 320.757 209.173,365.396 209.273,365.313 209.522 C 365.242 209.735,364.768 210.007,364.258 210.127 C 363.749 210.247,363.181 210.655,362.997 211.032 C 362.812 211.409,362.509 212.031,362.323 212.413 C 362.137 212.795,361.598 213.166,361.125 213.236 C 360.586 213.316,360.055 213.866,359.702 214.711 C 359.328 215.606,358.782 216.149,358.077 216.326 C 357.380 216.500,356.826 217.043,356.468 217.902 C 356.065 218.866,355.632 219.244,354.824 219.337 C 353.967 219.436,353.684 219.715,353.527 220.613 C 353.417 221.245,353.014 221.915,352.632 222.103 C 352.249 222.290,351.628 222.594,351.250 222.778 C 350.873 222.963,350.464 223.539,350.341 224.059 C 350.194 224.684,349.701 225.124,348.887 225.357 C 347.991 225.614,347.561 226.043,347.306 226.933 C 347.042 227.853,346.636 228.239,345.672 228.489 C 344.701 228.740,344.389 229.040,344.389 229.723 C 344.389 230.858,343.687 231.579,342.580 231.579 C 341.954 231.579,341.626 231.926,341.359 232.870 C 341.087 233.832,340.677 234.255,339.748 234.531 C 338.834 234.802,338.442 235.197,338.280 236.010 C 338.122 236.799,337.662 237.285,336.688 237.692 C 335.803 238.061,335.271 238.579,335.186 239.151 C 335.067 239.955,334.695 240.271,332.887 241.108 C 332.568 241.256,332.161 241.942,331.982 242.634 C 331.679 243.801,331.531 243.893,329.952 243.893 L 328.248 243.893 328.459 245.581 C 328.680 247.347,328.668 253.144,328.437 256.207 C 328.328 257.650,328.416 257.959,328.898 257.810 C 329.225 257.709,330.298 257.657,331.281 257.695 C 343.386 258.158,345.416 257.898,345.978 255.811 C 346.313 254.564,346.595 254.248,347.460 254.147 C 348.225 254.057,348.592 253.740,348.751 253.029 C 348.885 252.431,349.471 251.798,350.223 251.440 C 351.006 251.066,351.599 250.408,351.812 249.676 C 352.062 248.815,352.489 248.419,353.434 248.175 C 354.287 247.954,354.717 247.600,354.717 247.121 C 354.717 246.260,355.797 245.223,356.902 245.022 C 357.349 244.941,357.749 244.507,357.818 244.029 C 357.961 243.029,358.971 242.046,360.062 241.846 C 360.502 241.766,360.938 241.274,361.066 240.713 C 361.203 240.115,361.772 239.509,362.501 239.185 C 363.171 238.887,363.896 238.155,364.126 237.543 C 364.356 236.936,365.051 236.194,365.671 235.896 C 366.291 235.597,366.898 234.928,367.020 234.410 C 367.168 233.779,367.693 233.319,368.603 233.019 C 369.633 232.681,370.042 232.270,370.283 231.331 C 370.522 230.404,370.883 230.034,371.713 229.868 C 372.481 229.714,373.001 229.240,373.403 228.328 C 373.774 227.483,374.308 226.965,374.892 226.882 C 375.532 226.791,375.870 226.411,376.032 225.600 C 376.303 224.242,376.804 223.761,378.137 223.573 C 378.794 223.481,379.189 223.112,379.345 222.443 C 379.489 221.824,380.092 221.205,380.945 220.800 C 381.733 220.425,382.404 219.767,382.526 219.248 C 382.736 218.361,383.240 217.941,384.608 217.519 C 384.990 217.401,385.303 216.969,385.303 216.559 C 385.303 215.683,386.369 214.640,387.470 214.438 C 387.910 214.358,388.346 213.866,388.474 213.305 C 388.615 212.688,389.187 212.098,389.989 211.742 C 390.872 211.350,391.376 210.788,391.592 209.955 C 391.834 209.023,392.180 208.691,393.072 208.537 C 394.084 208.361,394.314 208.062,394.829 206.253 C 395.448 204.079,396.036 203.722,397.611 204.565 C 398.312 204.940,398.345 204.715,398.280 199.898 L 398.213 194.836 396.918 194.813 C 395.407 194.785,394.953 194.413,394.770 193.049 C 394.672 192.315,394.275 191.939,393.247 191.607 C 392.179 191.262,391.810 190.896,391.655 190.022 C 391.497 189.133,391.193 188.840,390.265 188.680 C 389.371 188.526,389.042 188.230,388.939 187.485 C 388.751 186.129,388.216 185.571,386.964 185.426 C 386.134 185.330,385.858 185.043,385.699 184.111 C 385.538 183.175,385.197 182.824,384.108 182.473 C 382.964 182.104,382.699 181.809,382.596 180.785 C 382.506 179.885,382.269 179.543,381.735 179.543 C 380.412 179.543,379.742 179.078,379.742 178.159 C 379.742 177.084,379.108 176.491,377.758 176.304 C 377.012 176.201,376.717 175.873,376.563 174.975 C 376.403 174.040,376.061 173.687,374.972 173.335 C 373.916 172.994,373.537 172.620,373.386 171.771 C 373.238 170.936,372.885 170.578,371.982 170.344 C 371.080 170.110,370.680 169.704,370.393 168.730 C 370.094 167.713,369.749 167.384,368.818 167.228 C 367.885 167.070,367.600 166.797,367.504 165.966 C 367.359 164.714,366.801 164.178,365.444 163.990 C 364.702 163.887,364.403 163.559,364.251 162.676 C 364.094 161.762,363.760 161.416,362.755 161.128 C 361.777 160.847,361.384 160.456,361.143 159.524 C 360.897 158.575,360.556 158.246,359.657 158.091 C 358.785 157.940,358.456 157.639,358.353 156.899 C 358.165 155.543,357.630 154.985,356.378 154.840 C 355.557 154.745,355.271 154.455,355.116 153.560 C 354.961 152.668,354.597 152.297,353.525 151.936 C 352.455 151.577,352.089 151.203,351.933 150.316 C 351.777 149.426,351.472 149.116,350.594 148.961 C 349.721 148.806,349.353 148.437,349.009 147.372 C 348.657 146.285,348.303 145.941,347.372 145.780 C 346.427 145.616,346.141 145.330,345.979 144.386 C 345.825 143.492,345.529 143.164,344.784 143.060 C 343.362 142.863,342.800 142.269,342.800 140.964 C 342.800 140.336,342.666 139.795,342.502 139.762 C 341.716 139.605,333.007 139.564,332.572 139.715 M261.244 156.366 C 260.679 156.931,261.013 157.298,262.066 157.268 C 262.703 157.249,262.910 157.142,262.562 157.009 C 262.234 156.885,261.865 156.628,261.740 156.439 C 261.616 156.250,261.393 156.217,261.244 156.366 M358.891 187.492 C 359.048 187.747,354.157 187.918,344.909 187.979 L 330.685 188.073 344.713 188.183 C 357.585 188.283,361.197 188.078,359.308 187.353 C 358.920 187.204,358.748 187.261,358.891 187.492 M140.914 188.183 C 154.076 188.241,175.616 188.241,188.779 188.183 C 201.941 188.125,191.172 188.077,164.846 188.077 C 138.520 188.077,127.751 188.125,140.914 188.183 M336.048 261.019 C 335.125 261.183,335.727 261.273,337.835 261.287 C 341.016 261.308,341.439 261.144,338.828 260.902 C 338.064 260.831,336.812 260.884,336.048 261.019 " stroke="none" fill="#fff" fill-rule="evenodd"></path></g></svg>